<mxfile host="app.diagrams.net" modified="2023-12-17T17:09:07.893Z" agent="Mozilla/5.0 (Windows NT 10.0; Win64; x64) AppleWebKit/537.36 (KHTML, like Gecko) Chrome/120.0.0.0 Safari/537.36 Edg/120.0.0.0" etag="wfAIFJN0YSfaSJYt-tA0" version="22.1.11" type="device">
  <diagram name="Страница — 1" id="ZZ2EfaBm7a6IDFJKJsze">
    <mxGraphModel dx="1787" dy="1056" grid="1" gridSize="10" guides="1" tooltips="1" connect="1" arrows="1" fold="1" page="1" pageScale="1" pageWidth="827" pageHeight="1169" math="0" shadow="0">
      <root>
        <mxCell id="0" />
        <mxCell id="1" parent="0" />
        <mxCell id="qhTMZGh4AH9Fs-Bt4C3k-1" value="return ptr" style="strokeWidth=1;html=1;shape=mxgraph.flowchart.terminator;whiteSpace=wrap;" parent="1" vertex="1">
          <mxGeometry x="300" y="1370" width="120" height="60" as="geometry" />
        </mxCell>
        <mxCell id="gV_0Cxts8DzmQKQQi6Z_-117" style="edgeStyle=orthogonalEdgeStyle;rounded=0;orthogonalLoop=1;jettySize=auto;html=1;" edge="1" parent="1" source="qhTMZGh4AH9Fs-Bt4C3k-5" target="gV_0Cxts8DzmQKQQi6Z_-116">
          <mxGeometry relative="1" as="geometry" />
        </mxCell>
        <mxCell id="gV_0Cxts8DzmQKQQi6Z_-119" style="edgeStyle=orthogonalEdgeStyle;rounded=0;orthogonalLoop=1;jettySize=auto;html=1;" edge="1" parent="1" source="qhTMZGh4AH9Fs-Bt4C3k-5" target="gV_0Cxts8DzmQKQQi6Z_-118">
          <mxGeometry relative="1" as="geometry" />
        </mxCell>
        <mxCell id="qhTMZGh4AH9Fs-Bt4C3k-5" value="n &amp;gt; 0?" style="rhombus;whiteSpace=wrap;html=1;" parent="1" vertex="1">
          <mxGeometry x="490" y="640" width="140" height="80" as="geometry" />
        </mxCell>
        <mxCell id="qhTMZGh4AH9Fs-Bt4C3k-15" value="да" style="text;html=1;strokeColor=none;fillColor=none;align=center;verticalAlign=middle;whiteSpace=wrap;rounded=0;" parent="1" vertex="1">
          <mxGeometry x="612" y="650" width="60" height="30" as="geometry" />
        </mxCell>
        <mxCell id="qhTMZGh4AH9Fs-Bt4C3k-16" value="нет" style="text;html=1;strokeColor=none;fillColor=none;align=center;verticalAlign=middle;whiteSpace=wrap;rounded=0;" parent="1" vertex="1">
          <mxGeometry x="550" y="709" width="60" height="30" as="geometry" />
        </mxCell>
        <mxCell id="qhTMZGh4AH9Fs-Bt4C3k-43" value="&lt;font style=&quot;font-size: 24px;&quot;&gt;1&lt;/font&gt;" style="text;html=1;strokeColor=none;fillColor=none;align=center;verticalAlign=middle;whiteSpace=wrap;rounded=0;" parent="1" vertex="1">
          <mxGeometry x="330" y="10" width="60" height="30" as="geometry" />
        </mxCell>
        <mxCell id="qhTMZGh4AH9Fs-Bt4C3k-44" value="&lt;font style=&quot;font-size: 24px;&quot;&gt;2&lt;/font&gt;" style="text;html=1;strokeColor=none;fillColor=none;align=center;verticalAlign=middle;whiteSpace=wrap;rounded=0;" parent="1" vertex="1">
          <mxGeometry x="530" y="10" width="60" height="30" as="geometry" />
        </mxCell>
        <mxCell id="qhTMZGh4AH9Fs-Bt4C3k-46" value="&lt;font style=&quot;font-size: 24px;&quot;&gt;A&lt;/font&gt;" style="text;html=1;strokeColor=none;fillColor=none;align=center;verticalAlign=middle;whiteSpace=wrap;rounded=0;" parent="1" vertex="1">
          <mxGeometry x="170" y="65" width="60" height="30" as="geometry" />
        </mxCell>
        <mxCell id="qhTMZGh4AH9Fs-Bt4C3k-47" value="&lt;font style=&quot;font-size: 24px;&quot;&gt;B&lt;/font&gt;" style="text;html=1;strokeColor=none;fillColor=none;align=center;verticalAlign=middle;whiteSpace=wrap;rounded=0;" parent="1" vertex="1">
          <mxGeometry x="170" y="185" width="60" height="30" as="geometry" />
        </mxCell>
        <mxCell id="qhTMZGh4AH9Fs-Bt4C3k-48" value="&lt;font style=&quot;font-size: 24px;&quot;&gt;C&lt;/font&gt;" style="text;html=1;strokeColor=none;fillColor=none;align=center;verticalAlign=middle;whiteSpace=wrap;rounded=0;" parent="1" vertex="1">
          <mxGeometry x="170" y="305" width="60" height="30" as="geometry" />
        </mxCell>
        <mxCell id="qhTMZGh4AH9Fs-Bt4C3k-49" value="&lt;font style=&quot;font-size: 24px;&quot;&gt;D&lt;/font&gt;" style="text;html=1;strokeColor=none;fillColor=none;align=center;verticalAlign=middle;whiteSpace=wrap;rounded=0;" parent="1" vertex="1">
          <mxGeometry x="170" y="425" width="60" height="30" as="geometry" />
        </mxCell>
        <mxCell id="gV_0Cxts8DzmQKQQi6Z_-49" value="&lt;font style=&quot;font-size: 24px;&quot;&gt;3&lt;/font&gt;" style="text;html=1;strokeColor=none;fillColor=none;align=center;verticalAlign=middle;whiteSpace=wrap;rounded=0;" vertex="1" parent="1">
          <mxGeometry x="730" y="10" width="60" height="30" as="geometry" />
        </mxCell>
        <mxCell id="gV_0Cxts8DzmQKQQi6Z_-97" value="&lt;font style=&quot;font-size: 24px;&quot;&gt;E&lt;/font&gt;" style="text;html=1;strokeColor=none;fillColor=none;align=center;verticalAlign=middle;whiteSpace=wrap;rounded=0;" vertex="1" parent="1">
          <mxGeometry x="170" y="545" width="60" height="30" as="geometry" />
        </mxCell>
        <mxCell id="gV_0Cxts8DzmQKQQi6Z_-98" value="&lt;font style=&quot;font-size: 24px;&quot;&gt;F&lt;/font&gt;" style="text;html=1;strokeColor=none;fillColor=none;align=center;verticalAlign=middle;whiteSpace=wrap;rounded=0;" vertex="1" parent="1">
          <mxGeometry x="170" y="665" width="60" height="30" as="geometry" />
        </mxCell>
        <mxCell id="gV_0Cxts8DzmQKQQi6Z_-99" value="&lt;font style=&quot;font-size: 24px;&quot;&gt;G&lt;/font&gt;" style="text;html=1;strokeColor=none;fillColor=none;align=center;verticalAlign=middle;whiteSpace=wrap;rounded=0;" vertex="1" parent="1">
          <mxGeometry x="170" y="785" width="60" height="30" as="geometry" />
        </mxCell>
        <mxCell id="gV_0Cxts8DzmQKQQi6Z_-100" value="&lt;font style=&quot;font-size: 24px;&quot;&gt;H&lt;/font&gt;" style="text;html=1;strokeColor=none;fillColor=none;align=center;verticalAlign=middle;whiteSpace=wrap;rounded=0;" vertex="1" parent="1">
          <mxGeometry x="170" y="905" width="60" height="30" as="geometry" />
        </mxCell>
        <mxCell id="gV_0Cxts8DzmQKQQi6Z_-101" value="&lt;font style=&quot;font-size: 24px;&quot;&gt;I&lt;/font&gt;" style="text;html=1;strokeColor=none;fillColor=none;align=center;verticalAlign=middle;whiteSpace=wrap;rounded=0;" vertex="1" parent="1">
          <mxGeometry x="170" y="1025" width="60" height="30" as="geometry" />
        </mxCell>
        <mxCell id="gV_0Cxts8DzmQKQQi6Z_-102" value="&lt;font style=&quot;font-size: 24px;&quot;&gt;J&lt;/font&gt;" style="text;html=1;strokeColor=none;fillColor=none;align=center;verticalAlign=middle;whiteSpace=wrap;rounded=0;" vertex="1" parent="1">
          <mxGeometry x="170" y="1145" width="60" height="30" as="geometry" />
        </mxCell>
        <mxCell id="gV_0Cxts8DzmQKQQi6Z_-103" value="&lt;font style=&quot;font-size: 24px;&quot;&gt;K&lt;/font&gt;" style="text;html=1;strokeColor=none;fillColor=none;align=center;verticalAlign=middle;whiteSpace=wrap;rounded=0;" vertex="1" parent="1">
          <mxGeometry x="170" y="1260" width="60" height="30" as="geometry" />
        </mxCell>
        <mxCell id="gV_0Cxts8DzmQKQQi6Z_-104" value="&lt;font style=&quot;font-size: 24px;&quot;&gt;L&lt;/font&gt;" style="text;html=1;strokeColor=none;fillColor=none;align=center;verticalAlign=middle;whiteSpace=wrap;rounded=0;" vertex="1" parent="1">
          <mxGeometry x="170" y="1385" width="60" height="30" as="geometry" />
        </mxCell>
        <mxCell id="gV_0Cxts8DzmQKQQi6Z_-112" value="" style="edgeStyle=orthogonalEdgeStyle;rounded=0;orthogonalLoop=1;jettySize=auto;html=1;" edge="1" parent="1" source="gV_0Cxts8DzmQKQQi6Z_-105" target="gV_0Cxts8DzmQKQQi6Z_-107">
          <mxGeometry relative="1" as="geometry" />
        </mxCell>
        <mxCell id="gV_0Cxts8DzmQKQQi6Z_-105" value="Вывод s" style="shape=parallelogram;perimeter=parallelogramPerimeter;whiteSpace=wrap;html=1;fixedSize=1;" vertex="1" parent="1">
          <mxGeometry x="300" y="170" width="120" height="60" as="geometry" />
        </mxCell>
        <mxCell id="gV_0Cxts8DzmQKQQi6Z_-109" value="" style="edgeStyle=orthogonalEdgeStyle;rounded=0;orthogonalLoop=1;jettySize=auto;html=1;" edge="1" parent="1" source="gV_0Cxts8DzmQKQQi6Z_-107" target="gV_0Cxts8DzmQKQQi6Z_-108">
          <mxGeometry relative="1" as="geometry" />
        </mxCell>
        <mxCell id="gV_0Cxts8DzmQKQQi6Z_-107" value="Выделение памяти ptr на 1 символ&lt;br&gt;и buf на 81 символ" style="rounded=0;whiteSpace=wrap;html=1;" vertex="1" parent="1">
          <mxGeometry x="300" y="290" width="120" height="60" as="geometry" />
        </mxCell>
        <mxCell id="gV_0Cxts8DzmQKQQi6Z_-114" style="edgeStyle=orthogonalEdgeStyle;rounded=0;orthogonalLoop=1;jettySize=auto;html=1;" edge="1" parent="1" source="gV_0Cxts8DzmQKQQi6Z_-108" target="gV_0Cxts8DzmQKQQi6Z_-113">
          <mxGeometry relative="1" as="geometry" />
        </mxCell>
        <mxCell id="gV_0Cxts8DzmQKQQi6Z_-108" value="*ptr = &#39;\0&#39;&lt;br&gt;len = 0" style="rounded=0;whiteSpace=wrap;html=1;" vertex="1" parent="1">
          <mxGeometry x="300" y="410" width="120" height="60" as="geometry" />
        </mxCell>
        <mxCell id="gV_0Cxts8DzmQKQQi6Z_-115" style="edgeStyle=orthogonalEdgeStyle;rounded=0;orthogonalLoop=1;jettySize=auto;html=1;" edge="1" parent="1" source="gV_0Cxts8DzmQKQQi6Z_-113" target="qhTMZGh4AH9Fs-Bt4C3k-5">
          <mxGeometry relative="1" as="geometry" />
        </mxCell>
        <mxCell id="gV_0Cxts8DzmQKQQi6Z_-113" value="n = Ввод buf&lt;br&gt;до 81 символа&lt;br&gt;или до &#39;\n&#39;" style="shape=parallelogram;perimeter=parallelogramPerimeter;whiteSpace=wrap;html=1;fixedSize=1;" vertex="1" parent="1">
          <mxGeometry x="500" y="530" width="120" height="60" as="geometry" />
        </mxCell>
        <mxCell id="gV_0Cxts8DzmQKQQi6Z_-135" style="edgeStyle=orthogonalEdgeStyle;rounded=0;orthogonalLoop=1;jettySize=auto;html=1;" edge="1" parent="1" source="gV_0Cxts8DzmQKQQi6Z_-116" target="gV_0Cxts8DzmQKQQi6Z_-130">
          <mxGeometry relative="1" as="geometry">
            <Array as="points">
              <mxPoint x="860" y="679" />
              <mxPoint x="860" y="1275" />
            </Array>
          </mxGeometry>
        </mxCell>
        <mxCell id="gV_0Cxts8DzmQKQQi6Z_-116" value="Очищение памяти ptr;&lt;br&gt;ptr = NULL" style="rounded=0;whiteSpace=wrap;html=1;" vertex="1" parent="1">
          <mxGeometry x="700" y="649" width="120" height="60" as="geometry" />
        </mxCell>
        <mxCell id="gV_0Cxts8DzmQKQQi6Z_-121" value="" style="edgeStyle=orthogonalEdgeStyle;rounded=0;orthogonalLoop=1;jettySize=auto;html=1;" edge="1" parent="1" source="gV_0Cxts8DzmQKQQi6Z_-118" target="gV_0Cxts8DzmQKQQi6Z_-120">
          <mxGeometry relative="1" as="geometry" />
        </mxCell>
        <mxCell id="gV_0Cxts8DzmQKQQi6Z_-132" style="edgeStyle=orthogonalEdgeStyle;rounded=0;orthogonalLoop=1;jettySize=auto;html=1;" edge="1" parent="1" source="gV_0Cxts8DzmQKQQi6Z_-118" target="gV_0Cxts8DzmQKQQi6Z_-125">
          <mxGeometry relative="1" as="geometry">
            <Array as="points">
              <mxPoint x="560" y="920" />
            </Array>
          </mxGeometry>
        </mxCell>
        <mxCell id="gV_0Cxts8DzmQKQQi6Z_-118" value="n == 0?" style="rhombus;whiteSpace=wrap;html=1;" vertex="1" parent="1">
          <mxGeometry x="490" y="760" width="140" height="80" as="geometry" />
        </mxCell>
        <mxCell id="gV_0Cxts8DzmQKQQi6Z_-134" style="edgeStyle=orthogonalEdgeStyle;rounded=0;orthogonalLoop=1;jettySize=auto;html=1;" edge="1" parent="1" source="gV_0Cxts8DzmQKQQi6Z_-120" target="gV_0Cxts8DzmQKQQi6Z_-130">
          <mxGeometry relative="1" as="geometry">
            <Array as="points">
              <mxPoint x="860" y="800" />
              <mxPoint x="860" y="1275" />
            </Array>
          </mxGeometry>
        </mxCell>
        <mxCell id="gV_0Cxts8DzmQKQQi6Z_-120" value="Считывание 1 символа" style="shape=parallelogram;perimeter=parallelogramPerimeter;whiteSpace=wrap;html=1;fixedSize=1;" vertex="1" parent="1">
          <mxGeometry x="700" y="770" width="120" height="60" as="geometry" />
        </mxCell>
        <mxCell id="gV_0Cxts8DzmQKQQi6Z_-129" value="" style="edgeStyle=orthogonalEdgeStyle;rounded=0;orthogonalLoop=1;jettySize=auto;html=1;" edge="1" parent="1" source="gV_0Cxts8DzmQKQQi6Z_-123" target="gV_0Cxts8DzmQKQQi6Z_-126">
          <mxGeometry relative="1" as="geometry" />
        </mxCell>
        <mxCell id="gV_0Cxts8DzmQKQQi6Z_-123" value="Выделение памяти ptr на len+1 символов" style="rounded=0;whiteSpace=wrap;html=1;" vertex="1" parent="1">
          <mxGeometry x="700" y="1010" width="120" height="60" as="geometry" />
        </mxCell>
        <mxCell id="gV_0Cxts8DzmQKQQi6Z_-128" style="edgeStyle=orthogonalEdgeStyle;rounded=0;orthogonalLoop=1;jettySize=auto;html=1;" edge="1" parent="1" source="gV_0Cxts8DzmQKQQi6Z_-125" target="gV_0Cxts8DzmQKQQi6Z_-123">
          <mxGeometry relative="1" as="geometry" />
        </mxCell>
        <mxCell id="gV_0Cxts8DzmQKQQi6Z_-125" value="len += slen(buf)" style="shape=process;whiteSpace=wrap;html=1;backgroundOutline=1;" vertex="1" parent="1">
          <mxGeometry x="700" y="890" width="120" height="60" as="geometry" />
        </mxCell>
        <mxCell id="gV_0Cxts8DzmQKQQi6Z_-133" style="edgeStyle=orthogonalEdgeStyle;rounded=0;orthogonalLoop=1;jettySize=auto;html=1;" edge="1" parent="1" source="gV_0Cxts8DzmQKQQi6Z_-126" target="gV_0Cxts8DzmQKQQi6Z_-130">
          <mxGeometry relative="1" as="geometry">
            <Array as="points">
              <mxPoint x="760" y="1275" />
            </Array>
          </mxGeometry>
        </mxCell>
        <mxCell id="gV_0Cxts8DzmQKQQi6Z_-126" value="scat(ptr, buf)" style="shape=process;whiteSpace=wrap;html=1;backgroundOutline=1;" vertex="1" parent="1">
          <mxGeometry x="700" y="1130" width="120" height="60" as="geometry" />
        </mxCell>
        <mxCell id="gV_0Cxts8DzmQKQQi6Z_-137" style="edgeStyle=orthogonalEdgeStyle;rounded=0;orthogonalLoop=1;jettySize=auto;html=1;" edge="1" parent="1" source="gV_0Cxts8DzmQKQQi6Z_-130">
          <mxGeometry relative="1" as="geometry">
            <mxPoint x="560" y="500" as="targetPoint" />
            <Array as="points">
              <mxPoint x="360" y="500" />
            </Array>
          </mxGeometry>
        </mxCell>
        <mxCell id="gV_0Cxts8DzmQKQQi6Z_-138" value="" style="edgeStyle=orthogonalEdgeStyle;rounded=0;orthogonalLoop=1;jettySize=auto;html=1;" edge="1" parent="1" source="gV_0Cxts8DzmQKQQi6Z_-130" target="qhTMZGh4AH9Fs-Bt4C3k-1">
          <mxGeometry relative="1" as="geometry" />
        </mxCell>
        <mxCell id="gV_0Cxts8DzmQKQQi6Z_-130" value="n &amp;gt; 0?" style="rhombus;whiteSpace=wrap;html=1;" vertex="1" parent="1">
          <mxGeometry x="290" y="1235" width="140" height="80" as="geometry" />
        </mxCell>
        <mxCell id="gV_0Cxts8DzmQKQQi6Z_-139" value="да" style="text;html=1;strokeColor=none;fillColor=none;align=center;verticalAlign=middle;whiteSpace=wrap;rounded=0;" vertex="1" parent="1">
          <mxGeometry x="612" y="770" width="60" height="30" as="geometry" />
        </mxCell>
        <mxCell id="gV_0Cxts8DzmQKQQi6Z_-140" value="нет" style="text;html=1;strokeColor=none;fillColor=none;align=center;verticalAlign=middle;whiteSpace=wrap;rounded=0;" vertex="1" parent="1">
          <mxGeometry x="550" y="830" width="60" height="30" as="geometry" />
        </mxCell>
        <mxCell id="gV_0Cxts8DzmQKQQi6Z_-141" value="нет" style="text;html=1;strokeColor=none;fillColor=none;align=center;verticalAlign=middle;whiteSpace=wrap;rounded=0;" vertex="1" parent="1">
          <mxGeometry x="354" y="1310" width="60" height="30" as="geometry" />
        </mxCell>
        <mxCell id="gV_0Cxts8DzmQKQQi6Z_-142" value="да" style="text;html=1;strokeColor=none;fillColor=none;align=center;verticalAlign=middle;whiteSpace=wrap;rounded=0;" vertex="1" parent="1">
          <mxGeometry x="354" y="1210" width="60" height="30" as="geometry" />
        </mxCell>
        <mxCell id="gV_0Cxts8DzmQKQQi6Z_-145" value="" style="edgeStyle=orthogonalEdgeStyle;rounded=0;orthogonalLoop=1;jettySize=auto;html=1;" edge="1" parent="1" source="gV_0Cxts8DzmQKQQi6Z_-144" target="gV_0Cxts8DzmQKQQi6Z_-105">
          <mxGeometry relative="1" as="geometry" />
        </mxCell>
        <mxCell id="gV_0Cxts8DzmQKQQi6Z_-144" value="readl(char *s)" style="strokeWidth=1;html=1;shape=mxgraph.flowchart.terminator;whiteSpace=wrap;" vertex="1" parent="1">
          <mxGeometry x="300" y="50" width="120" height="60" as="geometry" />
        </mxCell>
      </root>
    </mxGraphModel>
  </diagram>
</mxfile>
